<mxfile host="Electron" modified="2023-11-11T08:37:03.470Z" agent="Mozilla/5.0 (Windows NT 10.0; Win64; x64) AppleWebKit/537.36 (KHTML, like Gecko) draw.io/22.0.3 Chrome/114.0.5735.289 Electron/25.8.4 Safari/537.36" etag="U4qFf0nEy6IwADAQZbdQ" version="22.0.3" type="device">
  <diagram name="Trang-1" id="TFHO6TdPRJo7OTDRfAM2">
    <mxGraphModel dx="898" dy="541" grid="1" gridSize="10" guides="1" tooltips="1" connect="1" arrows="1" fold="1" page="1" pageScale="1" pageWidth="1169" pageHeight="1654" math="0" shadow="0">
      <root>
        <mxCell id="0" />
        <mxCell id="1" parent="0" />
        <mxCell id="s0Gu9_-jKFZz3a-zptHC-3" value="" style="edgeStyle=orthogonalEdgeStyle;rounded=0;orthogonalLoop=1;jettySize=auto;html=1;" edge="1" parent="1" source="s0Gu9_-jKFZz3a-zptHC-1" target="s0Gu9_-jKFZz3a-zptHC-2">
          <mxGeometry relative="1" as="geometry" />
        </mxCell>
        <mxCell id="s0Gu9_-jKFZz3a-zptHC-1" value="start" style="ellipse;whiteSpace=wrap;html=1;" vertex="1" parent="1">
          <mxGeometry x="380" y="90" width="120" height="80" as="geometry" />
        </mxCell>
        <mxCell id="s0Gu9_-jKFZz3a-zptHC-5" value="" style="edgeStyle=orthogonalEdgeStyle;rounded=0;orthogonalLoop=1;jettySize=auto;html=1;" edge="1" parent="1" source="s0Gu9_-jKFZz3a-zptHC-2" target="s0Gu9_-jKFZz3a-zptHC-4">
          <mxGeometry relative="1" as="geometry" />
        </mxCell>
        <mxCell id="s0Gu9_-jKFZz3a-zptHC-2" value="nhập vào số phút&amp;nbsp;&lt;br&gt;tình tiền điện&amp;nbsp;" style="shape=parallelogram;perimeter=parallelogramPerimeter;whiteSpace=wrap;html=1;fixedSize=1;" vertex="1" parent="1">
          <mxGeometry x="380" y="220" width="120" height="60" as="geometry" />
        </mxCell>
        <mxCell id="s0Gu9_-jKFZz3a-zptHC-7" value="" style="edgeStyle=orthogonalEdgeStyle;rounded=0;orthogonalLoop=1;jettySize=auto;html=1;" edge="1" parent="1" source="s0Gu9_-jKFZz3a-zptHC-4" target="s0Gu9_-jKFZz3a-zptHC-6">
          <mxGeometry relative="1" as="geometry" />
        </mxCell>
        <mxCell id="s0Gu9_-jKFZz3a-zptHC-9" value="" style="edgeStyle=orthogonalEdgeStyle;rounded=0;orthogonalLoop=1;jettySize=auto;html=1;exitX=0.5;exitY=1;exitDx=0;exitDy=0;" edge="1" parent="1" source="s0Gu9_-jKFZz3a-zptHC-4" target="s0Gu9_-jKFZz3a-zptHC-8">
          <mxGeometry relative="1" as="geometry">
            <mxPoint x="350" y="440" as="sourcePoint" />
          </mxGeometry>
        </mxCell>
        <mxCell id="s0Gu9_-jKFZz3a-zptHC-4" value="số phút &amp;lt;50" style="rhombus;whiteSpace=wrap;html=1;" vertex="1" parent="1">
          <mxGeometry x="400" y="320" width="80" height="80" as="geometry" />
        </mxCell>
        <mxCell id="s0Gu9_-jKFZz3a-zptHC-19" style="edgeStyle=orthogonalEdgeStyle;rounded=0;orthogonalLoop=1;jettySize=auto;html=1;entryX=1;entryY=0.5;entryDx=0;entryDy=0;" edge="1" parent="1" source="s0Gu9_-jKFZz3a-zptHC-6" target="s0Gu9_-jKFZz3a-zptHC-17">
          <mxGeometry relative="1" as="geometry">
            <Array as="points">
              <mxPoint x="880" y="360" />
              <mxPoint x="880" y="860" />
            </Array>
          </mxGeometry>
        </mxCell>
        <mxCell id="s0Gu9_-jKFZz3a-zptHC-6" value="số phút * 600" style="shape=parallelogram;perimeter=parallelogramPerimeter;whiteSpace=wrap;html=1;fixedSize=1;" vertex="1" parent="1">
          <mxGeometry x="540" y="330" width="120" height="60" as="geometry" />
        </mxCell>
        <mxCell id="s0Gu9_-jKFZz3a-zptHC-11" value="" style="edgeStyle=orthogonalEdgeStyle;rounded=0;orthogonalLoop=1;jettySize=auto;html=1;" edge="1" parent="1" source="s0Gu9_-jKFZz3a-zptHC-8" target="s0Gu9_-jKFZz3a-zptHC-10">
          <mxGeometry relative="1" as="geometry" />
        </mxCell>
        <mxCell id="s0Gu9_-jKFZz3a-zptHC-14" value="" style="edgeStyle=orthogonalEdgeStyle;rounded=0;orthogonalLoop=1;jettySize=auto;html=1;" edge="1" parent="1" source="s0Gu9_-jKFZz3a-zptHC-8" target="s0Gu9_-jKFZz3a-zptHC-13">
          <mxGeometry relative="1" as="geometry" />
        </mxCell>
        <mxCell id="s0Gu9_-jKFZz3a-zptHC-8" value="số phút &amp;lt;250" style="rhombus;whiteSpace=wrap;html=1;" vertex="1" parent="1">
          <mxGeometry x="390" y="510" width="100" height="90" as="geometry" />
        </mxCell>
        <mxCell id="s0Gu9_-jKFZz3a-zptHC-20" style="edgeStyle=orthogonalEdgeStyle;rounded=0;orthogonalLoop=1;jettySize=auto;html=1;entryX=1;entryY=0.5;entryDx=0;entryDy=0;" edge="1" parent="1" source="s0Gu9_-jKFZz3a-zptHC-10" target="s0Gu9_-jKFZz3a-zptHC-17">
          <mxGeometry relative="1" as="geometry">
            <Array as="points">
              <mxPoint x="880" y="555" />
              <mxPoint x="880" y="860" />
            </Array>
          </mxGeometry>
        </mxCell>
        <mxCell id="s0Gu9_-jKFZz3a-zptHC-10" value="50 *&amp;nbsp; 600 + (số phút-50)*400&amp;nbsp;" style="shape=parallelogram;perimeter=parallelogramPerimeter;whiteSpace=wrap;html=1;fixedSize=1;" vertex="1" parent="1">
          <mxGeometry x="560" y="525" width="150" height="60" as="geometry" />
        </mxCell>
        <mxCell id="s0Gu9_-jKFZz3a-zptHC-16" value="" style="edgeStyle=orthogonalEdgeStyle;rounded=0;orthogonalLoop=1;jettySize=auto;html=1;" edge="1" parent="1" source="s0Gu9_-jKFZz3a-zptHC-13" target="s0Gu9_-jKFZz3a-zptHC-15">
          <mxGeometry relative="1" as="geometry" />
        </mxCell>
        <mxCell id="s0Gu9_-jKFZz3a-zptHC-18" value="" style="edgeStyle=orthogonalEdgeStyle;rounded=0;orthogonalLoop=1;jettySize=auto;html=1;" edge="1" parent="1" source="s0Gu9_-jKFZz3a-zptHC-13" target="s0Gu9_-jKFZz3a-zptHC-17">
          <mxGeometry relative="1" as="geometry" />
        </mxCell>
        <mxCell id="s0Gu9_-jKFZz3a-zptHC-13" value="số phút &amp;lt;450" style="rhombus;whiteSpace=wrap;html=1;" vertex="1" parent="1">
          <mxGeometry x="400" y="685" width="80" height="80" as="geometry" />
        </mxCell>
        <mxCell id="s0Gu9_-jKFZz3a-zptHC-22" style="edgeStyle=orthogonalEdgeStyle;rounded=0;orthogonalLoop=1;jettySize=auto;html=1;" edge="1" parent="1" source="s0Gu9_-jKFZz3a-zptHC-15">
          <mxGeometry relative="1" as="geometry">
            <mxPoint x="510" y="860" as="targetPoint" />
            <Array as="points">
              <mxPoint x="880" y="725" />
              <mxPoint x="880" y="860" />
              <mxPoint x="482" y="860" />
            </Array>
          </mxGeometry>
        </mxCell>
        <mxCell id="s0Gu9_-jKFZz3a-zptHC-15" value="50*600+200*400+(số phút -250)*200" style="shape=parallelogram;perimeter=parallelogramPerimeter;whiteSpace=wrap;html=1;fixedSize=1;" vertex="1" parent="1">
          <mxGeometry x="540" y="695" width="180" height="60" as="geometry" />
        </mxCell>
        <mxCell id="s0Gu9_-jKFZz3a-zptHC-17" value="end&lt;br&gt;" style="ellipse;whiteSpace=wrap;html=1;" vertex="1" parent="1">
          <mxGeometry x="380" y="820" width="120" height="80" as="geometry" />
        </mxCell>
      </root>
    </mxGraphModel>
  </diagram>
</mxfile>
